<mxfile host="app.diagrams.net" modified="2021-05-12T17:18:20.225Z" agent="5.0 (X11; Linux x86_64) AppleWebKit/537.36 (KHTML, like Gecko) Chrome/90.0.4430.93 Safari/537.36" etag="NC0YaJymU-uJAYOrk_oX" version="14.6.11" type="github">
  <diagram name="Page-1" id="2ca16b54-16f6-2749-3443-fa8db7711227">
    <mxGraphModel dx="2370" dy="1335" grid="1" gridSize="10" guides="1" tooltips="1" connect="1" arrows="1" fold="1" page="1" pageScale="1" pageWidth="1100" pageHeight="850" background="#ffffff" math="0" shadow="0">
      <root>
        <mxCell id="0" />
        <mxCell id="1" parent="0" />
        <mxCell id="GLP4qCDU4uOR4cgcd3Z1-8" value="Main" style="swimlane;fontStyle=1;align=center;verticalAlign=top;childLayout=stackLayout;horizontal=1;startSize=26;horizontalStack=0;resizeParent=1;resizeParentMax=0;resizeLast=0;collapsible=1;marginBottom=0;" vertex="1" parent="1">
          <mxGeometry x="320" y="240" width="160" height="60" as="geometry" />
        </mxCell>
        <mxCell id="GLP4qCDU4uOR4cgcd3Z1-9" value="+ Render: RenderVeiwCam" style="text;strokeColor=none;fillColor=none;align=left;verticalAlign=top;spacingLeft=4;spacingRight=4;overflow=hidden;rotatable=0;points=[[0,0.5],[1,0.5]];portConstraint=eastwest;" vertex="1" parent="GLP4qCDU4uOR4cgcd3Z1-8">
          <mxGeometry y="26" width="160" height="26" as="geometry" />
        </mxCell>
        <mxCell id="GLP4qCDU4uOR4cgcd3Z1-10" value="" style="line;strokeWidth=1;fillColor=none;align=left;verticalAlign=middle;spacingTop=-1;spacingLeft=3;spacingRight=3;rotatable=0;labelPosition=right;points=[];portConstraint=eastwest;" vertex="1" parent="GLP4qCDU4uOR4cgcd3Z1-8">
          <mxGeometry y="52" width="160" height="8" as="geometry" />
        </mxCell>
        <mxCell id="GLP4qCDU4uOR4cgcd3Z1-13" value="IUploader" style="swimlane;fontStyle=1;align=center;verticalAlign=top;childLayout=stackLayout;horizontal=1;startSize=26;horizontalStack=0;resizeParent=1;resizeParentMax=0;resizeLast=0;collapsible=1;marginBottom=0;" vertex="1" parent="1">
          <mxGeometry x="190" y="360" width="160" height="60" as="geometry" />
        </mxCell>
        <mxCell id="GLP4qCDU4uOR4cgcd3Z1-15" value="" style="line;strokeWidth=1;fillColor=none;align=left;verticalAlign=middle;spacingTop=-1;spacingLeft=3;spacingRight=3;rotatable=0;labelPosition=right;points=[];portConstraint=eastwest;" vertex="1" parent="GLP4qCDU4uOR4cgcd3Z1-13">
          <mxGeometry y="26" width="160" height="8" as="geometry" />
        </mxCell>
        <mxCell id="GLP4qCDU4uOR4cgcd3Z1-16" value="+ upload(type: String): File" style="text;strokeColor=none;fillColor=none;align=left;verticalAlign=top;spacingLeft=4;spacingRight=4;overflow=hidden;rotatable=0;points=[[0,0.5],[1,0.5]];portConstraint=eastwest;" vertex="1" parent="GLP4qCDU4uOR4cgcd3Z1-13">
          <mxGeometry y="34" width="160" height="26" as="geometry" />
        </mxCell>
        <mxCell id="GLP4qCDU4uOR4cgcd3Z1-17" value="UploaderScene" style="swimlane;fontStyle=1;align=center;verticalAlign=top;childLayout=stackLayout;horizontal=1;startSize=26;horizontalStack=0;resizeParent=1;resizeParentMax=0;resizeLast=0;collapsible=1;marginBottom=0;" vertex="1" parent="1">
          <mxGeometry y="320" width="160" height="60" as="geometry" />
        </mxCell>
        <mxCell id="GLP4qCDU4uOR4cgcd3Z1-19" value="" style="line;strokeWidth=1;fillColor=none;align=left;verticalAlign=middle;spacingTop=-1;spacingLeft=3;spacingRight=3;rotatable=0;labelPosition=right;points=[];portConstraint=eastwest;" vertex="1" parent="GLP4qCDU4uOR4cgcd3Z1-17">
          <mxGeometry y="26" width="160" height="8" as="geometry" />
        </mxCell>
        <mxCell id="GLP4qCDU4uOR4cgcd3Z1-20" value="+ upload(type: String): File" style="text;strokeColor=none;fillColor=none;align=left;verticalAlign=top;spacingLeft=4;spacingRight=4;overflow=hidden;rotatable=0;points=[[0,0.5],[1,0.5]];portConstraint=eastwest;" vertex="1" parent="GLP4qCDU4uOR4cgcd3Z1-17">
          <mxGeometry y="34" width="160" height="26" as="geometry" />
        </mxCell>
        <mxCell id="GLP4qCDU4uOR4cgcd3Z1-21" value="" style="endArrow=classic;html=1;exitX=1.006;exitY=0.116;exitDx=0;exitDy=0;exitPerimeter=0;entryX=0.008;entryY=0.147;entryDx=0;entryDy=0;entryPerimeter=0;dashed=1;" edge="1" parent="1" source="GLP4qCDU4uOR4cgcd3Z1-17" target="GLP4qCDU4uOR4cgcd3Z1-13">
          <mxGeometry width="50" height="50" relative="1" as="geometry">
            <mxPoint x="180" y="530" as="sourcePoint" />
            <mxPoint x="230" y="480" as="targetPoint" />
          </mxGeometry>
        </mxCell>
        <mxCell id="GLP4qCDU4uOR4cgcd3Z1-22" value="UploaderModel" style="swimlane;fontStyle=1;align=center;verticalAlign=top;childLayout=stackLayout;horizontal=1;startSize=26;horizontalStack=0;resizeParent=1;resizeParentMax=0;resizeLast=0;collapsible=1;marginBottom=0;" vertex="1" parent="1">
          <mxGeometry y="446" width="160" height="60" as="geometry" />
        </mxCell>
        <mxCell id="GLP4qCDU4uOR4cgcd3Z1-24" value="" style="line;strokeWidth=1;fillColor=none;align=left;verticalAlign=middle;spacingTop=-1;spacingLeft=3;spacingRight=3;rotatable=0;labelPosition=right;points=[];portConstraint=eastwest;" vertex="1" parent="GLP4qCDU4uOR4cgcd3Z1-22">
          <mxGeometry y="26" width="160" height="8" as="geometry" />
        </mxCell>
        <mxCell id="GLP4qCDU4uOR4cgcd3Z1-25" value="+ upload(type: String): File" style="text;strokeColor=none;fillColor=none;align=left;verticalAlign=top;spacingLeft=4;spacingRight=4;overflow=hidden;rotatable=0;points=[[0,0.5],[1,0.5]];portConstraint=eastwest;" vertex="1" parent="GLP4qCDU4uOR4cgcd3Z1-22">
          <mxGeometry y="34" width="160" height="26" as="geometry" />
        </mxCell>
        <mxCell id="GLP4qCDU4uOR4cgcd3Z1-26" value="" style="endArrow=classic;html=1;dashed=1;exitX=1.009;exitY=0.123;exitDx=0;exitDy=0;exitPerimeter=0;entryX=0;entryY=0.201;entryDx=0;entryDy=0;entryPerimeter=0;" edge="1" parent="1" source="GLP4qCDU4uOR4cgcd3Z1-22" target="GLP4qCDU4uOR4cgcd3Z1-13">
          <mxGeometry width="50" height="50" relative="1" as="geometry">
            <mxPoint x="180" y="540" as="sourcePoint" />
            <mxPoint x="230" y="490" as="targetPoint" />
          </mxGeometry>
        </mxCell>
        <mxCell id="GLP4qCDU4uOR4cgcd3Z1-28" value="Cam" style="swimlane;fontStyle=1;align=center;verticalAlign=top;childLayout=stackLayout;horizontal=1;startSize=26;horizontalStack=0;resizeParent=1;resizeParentMax=0;resizeLast=0;collapsible=1;marginBottom=0;" vertex="1" parent="1">
          <mxGeometry x="680" y="308" width="160" height="138" as="geometry" />
        </mxCell>
        <mxCell id="GLP4qCDU4uOR4cgcd3Z1-64" value="- position: Position" style="text;strokeColor=none;fillColor=none;align=left;verticalAlign=top;spacingLeft=4;spacingRight=4;overflow=hidden;rotatable=0;points=[[0,0.5],[1,0.5]];portConstraint=eastwest;" vertex="1" parent="GLP4qCDU4uOR4cgcd3Z1-28">
          <mxGeometry y="26" width="160" height="26" as="geometry" />
        </mxCell>
        <mxCell id="GLP4qCDU4uOR4cgcd3Z1-29" value="- focusPosition: Position" style="text;strokeColor=none;fillColor=none;align=left;verticalAlign=top;spacingLeft=4;spacingRight=4;overflow=hidden;rotatable=0;points=[[0,0.5],[1,0.5]];portConstraint=eastwest;" vertex="1" parent="GLP4qCDU4uOR4cgcd3Z1-28">
          <mxGeometry y="52" width="160" height="26" as="geometry" />
        </mxCell>
        <mxCell id="GLP4qCDU4uOR4cgcd3Z1-30" value="" style="line;strokeWidth=1;fillColor=none;align=left;verticalAlign=middle;spacingTop=-1;spacingLeft=3;spacingRight=3;rotatable=0;labelPosition=right;points=[];portConstraint=eastwest;" vertex="1" parent="GLP4qCDU4uOR4cgcd3Z1-28">
          <mxGeometry y="78" width="160" height="8" as="geometry" />
        </mxCell>
        <mxCell id="GLP4qCDU4uOR4cgcd3Z1-31" value="+ move(x,y,z: Float): void" style="text;strokeColor=none;fillColor=none;align=left;verticalAlign=top;spacingLeft=4;spacingRight=4;overflow=hidden;rotatable=0;points=[[0,0.5],[1,0.5]];portConstraint=eastwest;" vertex="1" parent="GLP4qCDU4uOR4cgcd3Z1-28">
          <mxGeometry y="86" width="160" height="26" as="geometry" />
        </mxCell>
        <mxCell id="GLP4qCDU4uOR4cgcd3Z1-39" value="+ rotate(x,y,z: Float): void" style="text;strokeColor=none;fillColor=none;align=left;verticalAlign=top;spacingLeft=4;spacingRight=4;overflow=hidden;rotatable=0;points=[[0,0.5],[1,0.5]];portConstraint=eastwest;" vertex="1" parent="GLP4qCDU4uOR4cgcd3Z1-28">
          <mxGeometry y="112" width="160" height="26" as="geometry" />
        </mxCell>
        <mxCell id="GLP4qCDU4uOR4cgcd3Z1-32" value="FactoryCam" style="swimlane;fontStyle=1;align=center;verticalAlign=top;childLayout=stackLayout;horizontal=1;startSize=26;horizontalStack=0;resizeParent=1;resizeParentMax=0;resizeLast=0;collapsible=1;marginBottom=0;" vertex="1" parent="1">
          <mxGeometry x="490" y="327" width="160" height="60" as="geometry" />
        </mxCell>
        <mxCell id="GLP4qCDU4uOR4cgcd3Z1-34" value="" style="line;strokeWidth=1;fillColor=none;align=left;verticalAlign=middle;spacingTop=-1;spacingLeft=3;spacingRight=3;rotatable=0;labelPosition=right;points=[];portConstraint=eastwest;" vertex="1" parent="GLP4qCDU4uOR4cgcd3Z1-32">
          <mxGeometry y="26" width="160" height="8" as="geometry" />
        </mxCell>
        <mxCell id="GLP4qCDU4uOR4cgcd3Z1-35" value="+ Create(x,y,z: Float): Cam" style="text;strokeColor=none;fillColor=none;align=left;verticalAlign=top;spacingLeft=4;spacingRight=4;overflow=hidden;rotatable=0;points=[[0,0.5],[1,0.5]];portConstraint=eastwest;" vertex="1" parent="GLP4qCDU4uOR4cgcd3Z1-32">
          <mxGeometry y="34" width="160" height="26" as="geometry" />
        </mxCell>
        <mxCell id="GLP4qCDU4uOR4cgcd3Z1-38" value="" style="endArrow=none;html=1;startArrow=diamondThin;startFill=0;entryX=0;entryY=0.25;entryDx=0;entryDy=0;exitX=1;exitY=0.25;exitDx=0;exitDy=0;" edge="1" parent="1" source="GLP4qCDU4uOR4cgcd3Z1-32" target="GLP4qCDU4uOR4cgcd3Z1-28">
          <mxGeometry width="50" height="50" relative="1" as="geometry">
            <mxPoint x="760" y="463" as="sourcePoint" />
            <mxPoint x="810" y="413" as="targetPoint" />
          </mxGeometry>
        </mxCell>
        <mxCell id="GLP4qCDU4uOR4cgcd3Z1-40" value="" style="endArrow=none;html=1;startArrow=diamondThin;startFill=0;entryX=0.25;entryY=0;entryDx=0;entryDy=0;exitX=1.006;exitY=0.166;exitDx=0;exitDy=0;exitPerimeter=0;" edge="1" parent="1" source="GLP4qCDU4uOR4cgcd3Z1-8" target="GLP4qCDU4uOR4cgcd3Z1-32">
          <mxGeometry width="50" height="50" relative="1" as="geometry">
            <mxPoint x="610" y="270" as="sourcePoint" />
            <mxPoint x="670" y="276.5" as="targetPoint" />
          </mxGeometry>
        </mxCell>
        <mxCell id="GLP4qCDU4uOR4cgcd3Z1-41" value="" style="endArrow=none;html=1;startArrow=diamondThin;startFill=0;entryX=0.5;entryY=0;entryDx=0;entryDy=0;exitX=-0.004;exitY=0.153;exitDx=0;exitDy=0;exitPerimeter=0;" edge="1" parent="1" source="GLP4qCDU4uOR4cgcd3Z1-8" target="GLP4qCDU4uOR4cgcd3Z1-13">
          <mxGeometry width="50" height="50" relative="1" as="geometry">
            <mxPoint x="360" y="340" as="sourcePoint" />
            <mxPoint x="420" y="346.5" as="targetPoint" />
          </mxGeometry>
        </mxCell>
        <mxCell id="GLP4qCDU4uOR4cgcd3Z1-43" value="Position" style="swimlane;fontStyle=1;align=center;verticalAlign=top;childLayout=stackLayout;horizontal=1;startSize=26;horizontalStack=0;resizeParent=1;resizeParentMax=0;resizeLast=0;collapsible=1;marginBottom=0;" vertex="1" parent="1">
          <mxGeometry x="910" y="420" width="160" height="112" as="geometry" />
        </mxCell>
        <mxCell id="GLP4qCDU4uOR4cgcd3Z1-51" value="- x: Float" style="text;strokeColor=none;fillColor=none;align=left;verticalAlign=top;spacingLeft=4;spacingRight=4;overflow=hidden;rotatable=0;points=[[0,0.5],[1,0.5]];portConstraint=eastwest;" vertex="1" parent="GLP4qCDU4uOR4cgcd3Z1-43">
          <mxGeometry y="26" width="160" height="26" as="geometry" />
        </mxCell>
        <mxCell id="GLP4qCDU4uOR4cgcd3Z1-44" value="- y: Float" style="text;strokeColor=none;fillColor=none;align=left;verticalAlign=top;spacingLeft=4;spacingRight=4;overflow=hidden;rotatable=0;points=[[0,0.5],[1,0.5]];portConstraint=eastwest;" vertex="1" parent="GLP4qCDU4uOR4cgcd3Z1-43">
          <mxGeometry y="52" width="160" height="26" as="geometry" />
        </mxCell>
        <mxCell id="GLP4qCDU4uOR4cgcd3Z1-52" value="- z: Float" style="text;strokeColor=none;fillColor=none;align=left;verticalAlign=top;spacingLeft=4;spacingRight=4;overflow=hidden;rotatable=0;points=[[0,0.5],[1,0.5]];portConstraint=eastwest;" vertex="1" parent="GLP4qCDU4uOR4cgcd3Z1-43">
          <mxGeometry y="78" width="160" height="26" as="geometry" />
        </mxCell>
        <mxCell id="GLP4qCDU4uOR4cgcd3Z1-45" value="" style="line;strokeWidth=1;fillColor=none;align=left;verticalAlign=middle;spacingTop=-1;spacingLeft=3;spacingRight=3;rotatable=0;labelPosition=right;points=[];portConstraint=eastwest;" vertex="1" parent="GLP4qCDU4uOR4cgcd3Z1-43">
          <mxGeometry y="104" width="160" height="8" as="geometry" />
        </mxCell>
        <mxCell id="GLP4qCDU4uOR4cgcd3Z1-50" value="" style="endArrow=none;html=1;startArrow=diamondThin;startFill=0;exitX=1;exitY=0.25;exitDx=0;exitDy=0;entryX=0;entryY=0;entryDx=0;entryDy=0;" edge="1" parent="1" source="GLP4qCDU4uOR4cgcd3Z1-28" target="GLP4qCDU4uOR4cgcd3Z1-43">
          <mxGeometry width="50" height="50" relative="1" as="geometry">
            <mxPoint x="780" y="333" as="sourcePoint" />
            <mxPoint x="909" y="347" as="targetPoint" />
          </mxGeometry>
        </mxCell>
        <mxCell id="GLP4qCDU4uOR4cgcd3Z1-53" value="FactoryLigth" style="swimlane;fontStyle=1;align=center;verticalAlign=top;childLayout=stackLayout;horizontal=1;startSize=26;horizontalStack=0;resizeParent=1;resizeParentMax=0;resizeLast=0;collapsible=1;marginBottom=0;" vertex="1" parent="1">
          <mxGeometry x="450" y="517" width="160" height="60" as="geometry" />
        </mxCell>
        <mxCell id="GLP4qCDU4uOR4cgcd3Z1-55" value="" style="line;strokeWidth=1;fillColor=none;align=left;verticalAlign=middle;spacingTop=-1;spacingLeft=3;spacingRight=3;rotatable=0;labelPosition=right;points=[];portConstraint=eastwest;" vertex="1" parent="GLP4qCDU4uOR4cgcd3Z1-53">
          <mxGeometry y="26" width="160" height="8" as="geometry" />
        </mxCell>
        <mxCell id="GLP4qCDU4uOR4cgcd3Z1-56" value="+ Create(x,y,z: Int): Light" style="text;strokeColor=none;fillColor=none;align=left;verticalAlign=top;spacingLeft=4;spacingRight=4;overflow=hidden;rotatable=0;points=[[0,0.5],[1,0.5]];portConstraint=eastwest;" vertex="1" parent="GLP4qCDU4uOR4cgcd3Z1-53">
          <mxGeometry y="34" width="160" height="26" as="geometry" />
        </mxCell>
        <mxCell id="GLP4qCDU4uOR4cgcd3Z1-57" value="Light" style="swimlane;fontStyle=1;align=center;verticalAlign=top;childLayout=stackLayout;horizontal=1;startSize=26;horizontalStack=0;resizeParent=1;resizeParentMax=0;resizeLast=0;collapsible=1;marginBottom=0;" vertex="1" parent="1">
          <mxGeometry x="680" y="500" width="180" height="138" as="geometry" />
        </mxCell>
        <mxCell id="GLP4qCDU4uOR4cgcd3Z1-58" value="- brightness: Float" style="text;strokeColor=none;fillColor=none;align=left;verticalAlign=top;spacingLeft=4;spacingRight=4;overflow=hidden;rotatable=0;points=[[0,0.5],[1,0.5]];portConstraint=eastwest;" vertex="1" parent="GLP4qCDU4uOR4cgcd3Z1-57">
          <mxGeometry y="26" width="180" height="26" as="geometry" />
        </mxCell>
        <mxCell id="GLP4qCDU4uOR4cgcd3Z1-65" value="- position: Float" style="text;strokeColor=none;fillColor=none;align=left;verticalAlign=top;spacingLeft=4;spacingRight=4;overflow=hidden;rotatable=0;points=[[0,0.5],[1,0.5]];portConstraint=eastwest;" vertex="1" parent="GLP4qCDU4uOR4cgcd3Z1-57">
          <mxGeometry y="52" width="180" height="26" as="geometry" />
        </mxCell>
        <mxCell id="GLP4qCDU4uOR4cgcd3Z1-59" value="" style="line;strokeWidth=1;fillColor=none;align=left;verticalAlign=middle;spacingTop=-1;spacingLeft=3;spacingRight=3;rotatable=0;labelPosition=right;points=[];portConstraint=eastwest;" vertex="1" parent="GLP4qCDU4uOR4cgcd3Z1-57">
          <mxGeometry y="78" width="180" height="8" as="geometry" />
        </mxCell>
        <mxCell id="GLP4qCDU4uOR4cgcd3Z1-60" value="+ Move(x,y,z: Int): void" style="text;strokeColor=none;fillColor=none;align=left;verticalAlign=top;spacingLeft=4;spacingRight=4;overflow=hidden;rotatable=0;points=[[0,0.5],[1,0.5]];portConstraint=eastwest;" vertex="1" parent="GLP4qCDU4uOR4cgcd3Z1-57">
          <mxGeometry y="86" width="180" height="26" as="geometry" />
        </mxCell>
        <mxCell id="GLP4qCDU4uOR4cgcd3Z1-66" value="+ setBrightness(level: Float): void" style="text;strokeColor=none;fillColor=none;align=left;verticalAlign=top;spacingLeft=4;spacingRight=4;overflow=hidden;rotatable=0;points=[[0,0.5],[1,0.5]];portConstraint=eastwest;" vertex="1" parent="GLP4qCDU4uOR4cgcd3Z1-57">
          <mxGeometry y="112" width="180" height="26" as="geometry" />
        </mxCell>
        <mxCell id="GLP4qCDU4uOR4cgcd3Z1-61" value="" style="endArrow=none;html=1;startArrow=diamondThin;startFill=0;entryX=0.25;entryY=0;entryDx=0;entryDy=0;exitX=0.5;exitY=1;exitDx=0;exitDy=0;" edge="1" parent="1" source="GLP4qCDU4uOR4cgcd3Z1-8" target="GLP4qCDU4uOR4cgcd3Z1-53">
          <mxGeometry width="50" height="50" relative="1" as="geometry">
            <mxPoint x="489.8984771573605" y="326" as="sourcePoint" />
            <mxPoint x="640" y="484" as="targetPoint" />
          </mxGeometry>
        </mxCell>
        <mxCell id="GLP4qCDU4uOR4cgcd3Z1-62" value="" style="endArrow=none;html=1;startArrow=diamondThin;startFill=0;exitX=1;exitY=0.25;exitDx=0;exitDy=0;entryX=0;entryY=0.25;entryDx=0;entryDy=0;" edge="1" parent="1" source="GLP4qCDU4uOR4cgcd3Z1-53" target="GLP4qCDU4uOR4cgcd3Z1-57">
          <mxGeometry width="50" height="50" relative="1" as="geometry">
            <mxPoint x="570" y="327" as="sourcePoint" />
            <mxPoint x="640" y="524" as="targetPoint" />
          </mxGeometry>
        </mxCell>
        <mxCell id="GLP4qCDU4uOR4cgcd3Z1-63" value="" style="endArrow=none;html=1;startArrow=diamondThin;startFill=0;exitX=1;exitY=0;exitDx=0;exitDy=0;entryX=0;entryY=0;entryDx=0;entryDy=0;" edge="1" parent="1" source="GLP4qCDU4uOR4cgcd3Z1-57" target="GLP4qCDU4uOR4cgcd3Z1-43">
          <mxGeometry width="50" height="50" relative="1" as="geometry">
            <mxPoint x="770" y="327" as="sourcePoint" />
            <mxPoint x="840" y="524" as="targetPoint" />
          </mxGeometry>
        </mxCell>
        <mxCell id="GLP4qCDU4uOR4cgcd3Z1-67" value="RenderViewCam" style="swimlane;fontStyle=1;align=center;verticalAlign=top;childLayout=stackLayout;horizontal=1;startSize=26;horizontalStack=0;resizeParent=1;resizeParentMax=0;resizeLast=0;collapsible=1;marginBottom=0;" vertex="1" parent="1">
          <mxGeometry x="280" y="569" width="160" height="86" as="geometry" />
        </mxCell>
        <mxCell id="GLP4qCDU4uOR4cgcd3Z1-74" value="- zBuff: ZBuff" style="text;strokeColor=none;fillColor=none;align=left;verticalAlign=top;spacingLeft=4;spacingRight=4;overflow=hidden;rotatable=0;points=[[0,0.5],[1,0.5]];portConstraint=eastwest;" vertex="1" parent="GLP4qCDU4uOR4cgcd3Z1-67">
          <mxGeometry y="26" width="160" height="26" as="geometry" />
        </mxCell>
        <mxCell id="GLP4qCDU4uOR4cgcd3Z1-68" value="" style="line;strokeWidth=1;fillColor=none;align=left;verticalAlign=middle;spacingTop=-1;spacingLeft=3;spacingRight=3;rotatable=0;labelPosition=right;points=[];portConstraint=eastwest;" vertex="1" parent="GLP4qCDU4uOR4cgcd3Z1-67">
          <mxGeometry y="52" width="160" height="8" as="geometry" />
        </mxCell>
        <mxCell id="GLP4qCDU4uOR4cgcd3Z1-69" value="+ render(type: String): File" style="text;strokeColor=none;fillColor=none;align=left;verticalAlign=top;spacingLeft=4;spacingRight=4;overflow=hidden;rotatable=0;points=[[0,0.5],[1,0.5]];portConstraint=eastwest;" vertex="1" parent="GLP4qCDU4uOR4cgcd3Z1-67">
          <mxGeometry y="60" width="160" height="26" as="geometry" />
        </mxCell>
        <mxCell id="GLP4qCDU4uOR4cgcd3Z1-70" value="ZBuff" style="swimlane;fontStyle=1;align=center;verticalAlign=top;childLayout=stackLayout;horizontal=1;startSize=26;horizontalStack=0;resizeParent=1;resizeParentMax=0;resizeLast=0;collapsible=1;marginBottom=0;" vertex="1" parent="1">
          <mxGeometry y="730" width="160" height="90" as="geometry" />
        </mxCell>
        <mxCell id="GLP4qCDU4uOR4cgcd3Z1-71" value="" style="line;strokeWidth=1;fillColor=none;align=left;verticalAlign=middle;spacingTop=-1;spacingLeft=3;spacingRight=3;rotatable=0;labelPosition=right;points=[];portConstraint=eastwest;" vertex="1" parent="GLP4qCDU4uOR4cgcd3Z1-70">
          <mxGeometry y="26" width="160" height="8" as="geometry" />
        </mxCell>
        <mxCell id="GLP4qCDU4uOR4cgcd3Z1-72" value="+ render(models: Models, &#xa;acticeCam: Cam, &#xa;scene: Scene):Scene" style="text;strokeColor=none;fillColor=none;align=left;verticalAlign=top;spacingLeft=4;spacingRight=4;overflow=hidden;rotatable=0;points=[[0,0.5],[1,0.5]];portConstraint=eastwest;" vertex="1" parent="GLP4qCDU4uOR4cgcd3Z1-70">
          <mxGeometry y="34" width="160" height="56" as="geometry" />
        </mxCell>
        <mxCell id="GLP4qCDU4uOR4cgcd3Z1-75" value="" style="endArrow=none;html=1;startArrow=diamondThin;startFill=1;exitX=0.481;exitY=1.103;exitDx=0;exitDy=0;entryX=0.5;entryY=0;entryDx=0;entryDy=0;exitPerimeter=0;" edge="1" parent="1" source="GLP4qCDU4uOR4cgcd3Z1-69" target="GLP4qCDU4uOR4cgcd3Z1-70">
          <mxGeometry width="50" height="50" relative="1" as="geometry">
            <mxPoint x="260" y="699.9999999999999" as="sourcePoint" />
            <mxPoint x="320" y="713" as="targetPoint" />
          </mxGeometry>
        </mxCell>
        <mxCell id="GLP4qCDU4uOR4cgcd3Z1-76" value="Projection" style="swimlane;fontStyle=1;align=center;verticalAlign=top;childLayout=stackLayout;horizontal=1;startSize=26;horizontalStack=0;resizeParent=1;resizeParentMax=0;resizeLast=0;collapsible=1;marginBottom=0;" vertex="1" parent="1">
          <mxGeometry x="200" y="730" width="160" height="90" as="geometry" />
        </mxCell>
        <mxCell id="GLP4qCDU4uOR4cgcd3Z1-77" value="" style="line;strokeWidth=1;fillColor=none;align=left;verticalAlign=middle;spacingTop=-1;spacingLeft=3;spacingRight=3;rotatable=0;labelPosition=right;points=[];portConstraint=eastwest;" vertex="1" parent="GLP4qCDU4uOR4cgcd3Z1-76">
          <mxGeometry y="26" width="160" height="8" as="geometry" />
        </mxCell>
        <mxCell id="GLP4qCDU4uOR4cgcd3Z1-78" value="+ render(models: Models, &#xa;acticeCam: Cam, &#xa;sceen: Scene):Scene" style="text;strokeColor=none;fillColor=none;align=left;verticalAlign=top;spacingLeft=4;spacingRight=4;overflow=hidden;rotatable=0;points=[[0,0.5],[1,0.5]];portConstraint=eastwest;" vertex="1" parent="GLP4qCDU4uOR4cgcd3Z1-76">
          <mxGeometry y="34" width="160" height="56" as="geometry" />
        </mxCell>
        <mxCell id="GLP4qCDU4uOR4cgcd3Z1-79" value="" style="endArrow=none;html=1;startArrow=diamondThin;startFill=1;exitX=0.515;exitY=1.077;exitDx=0;exitDy=0;entryX=0.5;entryY=0;entryDx=0;entryDy=0;exitPerimeter=0;" edge="1" parent="1" source="GLP4qCDU4uOR4cgcd3Z1-69" target="GLP4qCDU4uOR4cgcd3Z1-76">
          <mxGeometry width="50" height="50" relative="1" as="geometry">
            <mxPoint x="370" y="585.9999999999999" as="sourcePoint" />
            <mxPoint x="290" y="724.5" as="targetPoint" />
          </mxGeometry>
        </mxCell>
        <mxCell id="GLP4qCDU4uOR4cgcd3Z1-80" value="Projection" style="swimlane;fontStyle=1;align=center;verticalAlign=top;childLayout=stackLayout;horizontal=1;startSize=26;horizontalStack=0;resizeParent=1;resizeParentMax=0;resizeLast=0;collapsible=1;marginBottom=0;" vertex="1" parent="1">
          <mxGeometry x="380" y="730" width="160" height="90" as="geometry" />
        </mxCell>
        <mxCell id="GLP4qCDU4uOR4cgcd3Z1-81" value="" style="line;strokeWidth=1;fillColor=none;align=left;verticalAlign=middle;spacingTop=-1;spacingLeft=3;spacingRight=3;rotatable=0;labelPosition=right;points=[];portConstraint=eastwest;" vertex="1" parent="GLP4qCDU4uOR4cgcd3Z1-80">
          <mxGeometry y="26" width="160" height="8" as="geometry" />
        </mxCell>
        <mxCell id="GLP4qCDU4uOR4cgcd3Z1-82" value="+ render(models: Models, &#xa;acticeCam: Cam, &#xa;sceen: Scene):Scene" style="text;strokeColor=none;fillColor=none;align=left;verticalAlign=top;spacingLeft=4;spacingRight=4;overflow=hidden;rotatable=0;points=[[0,0.5],[1,0.5]];portConstraint=eastwest;" vertex="1" parent="GLP4qCDU4uOR4cgcd3Z1-80">
          <mxGeometry y="34" width="160" height="56" as="geometry" />
        </mxCell>
        <mxCell id="GLP4qCDU4uOR4cgcd3Z1-83" value="" style="endArrow=none;html=1;startArrow=diamondThin;startFill=1;exitX=0.567;exitY=1.103;exitDx=0;exitDy=0;entryX=0.5;entryY=0;entryDx=0;entryDy=0;exitPerimeter=0;" edge="1" parent="1" source="GLP4qCDU4uOR4cgcd3Z1-69" target="GLP4qCDU4uOR4cgcd3Z1-80">
          <mxGeometry width="50" height="50" relative="1" as="geometry">
            <mxPoint x="450.0000000000001" y="630.002" as="sourcePoint" />
            <mxPoint x="487.6" y="702" as="targetPoint" />
          </mxGeometry>
        </mxCell>
        <mxCell id="GLP4qCDU4uOR4cgcd3Z1-84" value="RenderLigth" style="swimlane;fontStyle=1;align=center;verticalAlign=top;childLayout=stackLayout;horizontal=1;startSize=26;horizontalStack=0;resizeParent=1;resizeParentMax=0;resizeLast=0;collapsible=1;marginBottom=0;" vertex="1" parent="1">
          <mxGeometry x="560" y="730" width="160" height="90" as="geometry" />
        </mxCell>
        <mxCell id="GLP4qCDU4uOR4cgcd3Z1-85" value="" style="line;strokeWidth=1;fillColor=none;align=left;verticalAlign=middle;spacingTop=-1;spacingLeft=3;spacingRight=3;rotatable=0;labelPosition=right;points=[];portConstraint=eastwest;" vertex="1" parent="GLP4qCDU4uOR4cgcd3Z1-84">
          <mxGeometry y="26" width="160" height="8" as="geometry" />
        </mxCell>
        <mxCell id="GLP4qCDU4uOR4cgcd3Z1-86" value="+ render(models: Models, &#xa;acticeCam: Cam, &#xa;ligths: Ligth[]):Scene" style="text;strokeColor=none;fillColor=none;align=left;verticalAlign=top;spacingLeft=4;spacingRight=4;overflow=hidden;rotatable=0;points=[[0,0.5],[1,0.5]];portConstraint=eastwest;" vertex="1" parent="GLP4qCDU4uOR4cgcd3Z1-84">
          <mxGeometry y="34" width="160" height="56" as="geometry" />
        </mxCell>
        <mxCell id="GLP4qCDU4uOR4cgcd3Z1-88" value="" style="endArrow=none;html=1;startArrow=diamondThin;startFill=1;exitX=0.625;exitY=1.045;exitDx=0;exitDy=0;entryX=0.5;entryY=0;entryDx=0;entryDy=0;exitPerimeter=0;" edge="1" parent="1" source="GLP4qCDU4uOR4cgcd3Z1-69" target="GLP4qCDU4uOR4cgcd3Z1-84">
          <mxGeometry width="50" height="50" relative="1" as="geometry">
            <mxPoint x="480" y="639.998" as="sourcePoint" />
            <mxPoint x="569.28" y="712.3199999999999" as="targetPoint" />
          </mxGeometry>
        </mxCell>
        <mxCell id="GLP4qCDU4uOR4cgcd3Z1-89" value="" style="endArrow=none;html=1;startArrow=diamondThin;startFill=0;entryX=0.5;entryY=0;entryDx=0;entryDy=0;exitX=0.25;exitY=1;exitDx=0;exitDy=0;" edge="1" parent="1" source="GLP4qCDU4uOR4cgcd3Z1-8" target="GLP4qCDU4uOR4cgcd3Z1-67">
          <mxGeometry width="50" height="50" relative="1" as="geometry">
            <mxPoint x="480" y="299" as="sourcePoint" />
            <mxPoint x="370" y="486.84000000000003" as="targetPoint" />
          </mxGeometry>
        </mxCell>
        <mxCell id="GLP4qCDU4uOR4cgcd3Z1-90" value="Scene" style="swimlane;fontStyle=1;align=center;verticalAlign=top;childLayout=stackLayout;horizontal=1;startSize=26;horizontalStack=0;resizeParent=1;resizeParentMax=0;resizeLast=0;collapsible=1;marginBottom=0;" vertex="1" parent="1">
          <mxGeometry x="30" y="140" width="160" height="86" as="geometry" />
        </mxCell>
        <mxCell id="GLP4qCDU4uOR4cgcd3Z1-92" value="- scene: Float[][][]" style="text;strokeColor=none;fillColor=none;align=left;verticalAlign=top;spacingLeft=4;spacingRight=4;overflow=hidden;rotatable=0;points=[[0,0.5],[1,0.5]];portConstraint=eastwest;" vertex="1" parent="GLP4qCDU4uOR4cgcd3Z1-90">
          <mxGeometry y="26" width="160" height="26" as="geometry" />
        </mxCell>
        <mxCell id="GLP4qCDU4uOR4cgcd3Z1-91" value="" style="line;strokeWidth=1;fillColor=none;align=left;verticalAlign=middle;spacingTop=-1;spacingLeft=3;spacingRight=3;rotatable=0;labelPosition=right;points=[];portConstraint=eastwest;" vertex="1" parent="GLP4qCDU4uOR4cgcd3Z1-90">
          <mxGeometry y="52" width="160" height="8" as="geometry" />
        </mxCell>
        <mxCell id="GLP4qCDU4uOR4cgcd3Z1-98" value="+ save(method: IExport): void" style="text;strokeColor=none;fillColor=none;align=left;verticalAlign=top;spacingLeft=4;spacingRight=4;overflow=hidden;rotatable=0;points=[[0,0.5],[1,0.5]];portConstraint=eastwest;" vertex="1" parent="GLP4qCDU4uOR4cgcd3Z1-90">
          <mxGeometry y="60" width="160" height="26" as="geometry" />
        </mxCell>
        <mxCell id="GLP4qCDU4uOR4cgcd3Z1-94" value="" style="endArrow=none;html=1;startArrow=diamondThin;startFill=1;exitX=0.25;exitY=0;exitDx=0;exitDy=0;entryX=1;entryY=0.25;entryDx=0;entryDy=0;" edge="1" parent="1" source="GLP4qCDU4uOR4cgcd3Z1-8" target="GLP4qCDU4uOR4cgcd3Z1-90">
          <mxGeometry width="50" height="50" relative="1" as="geometry">
            <mxPoint x="418.48" y="229.9980000000001" as="sourcePoint" />
            <mxPoint x="141.52" y="302.32" as="targetPoint" />
          </mxGeometry>
        </mxCell>
        <mxCell id="GLP4qCDU4uOR4cgcd3Z1-95" value="IExport" style="swimlane;fontStyle=1;align=center;verticalAlign=top;childLayout=stackLayout;horizontal=1;startSize=26;horizontalStack=0;resizeParent=1;resizeParentMax=0;resizeLast=0;collapsible=1;marginBottom=0;" vertex="1" parent="1">
          <mxGeometry x="530" y="147" width="160" height="60" as="geometry" />
        </mxCell>
        <mxCell id="GLP4qCDU4uOR4cgcd3Z1-96" value="" style="line;strokeWidth=1;fillColor=none;align=left;verticalAlign=middle;spacingTop=-1;spacingLeft=3;spacingRight=3;rotatable=0;labelPosition=right;points=[];portConstraint=eastwest;" vertex="1" parent="GLP4qCDU4uOR4cgcd3Z1-95">
          <mxGeometry y="26" width="160" height="8" as="geometry" />
        </mxCell>
        <mxCell id="GLP4qCDU4uOR4cgcd3Z1-100" value="+ export(scene: Scene): void" style="text;strokeColor=none;fillColor=none;align=left;verticalAlign=top;spacingLeft=4;spacingRight=4;overflow=hidden;rotatable=0;points=[[0,0.5],[1,0.5]];portConstraint=eastwest;" vertex="1" parent="GLP4qCDU4uOR4cgcd3Z1-95">
          <mxGeometry y="34" width="160" height="26" as="geometry" />
        </mxCell>
        <mxCell id="GLP4qCDU4uOR4cgcd3Z1-99" value="" style="endArrow=none;html=1;startArrow=diamondThin;startFill=0;entryX=0;entryY=0.25;entryDx=0;entryDy=0;exitX=0.75;exitY=0;exitDx=0;exitDy=0;" edge="1" parent="1" source="GLP4qCDU4uOR4cgcd3Z1-8" target="GLP4qCDU4uOR4cgcd3Z1-95">
          <mxGeometry width="50" height="50" relative="1" as="geometry">
            <mxPoint x="550.3599999999999" y="29.180000000000064" as="sourcePoint" />
            <mxPoint x="451" y="140" as="targetPoint" />
          </mxGeometry>
        </mxCell>
        <mxCell id="GLP4qCDU4uOR4cgcd3Z1-101" value="SaveToImage" style="swimlane;fontStyle=1;align=center;verticalAlign=top;childLayout=stackLayout;horizontal=1;startSize=26;horizontalStack=0;resizeParent=1;resizeParentMax=0;resizeLast=0;collapsible=1;marginBottom=0;" vertex="1" parent="1">
          <mxGeometry x="730" y="67" width="160" height="60" as="geometry" />
        </mxCell>
        <mxCell id="GLP4qCDU4uOR4cgcd3Z1-102" value="" style="line;strokeWidth=1;fillColor=none;align=left;verticalAlign=middle;spacingTop=-1;spacingLeft=3;spacingRight=3;rotatable=0;labelPosition=right;points=[];portConstraint=eastwest;" vertex="1" parent="GLP4qCDU4uOR4cgcd3Z1-101">
          <mxGeometry y="26" width="160" height="8" as="geometry" />
        </mxCell>
        <mxCell id="GLP4qCDU4uOR4cgcd3Z1-103" value="+ export(scene: Scene): void" style="text;strokeColor=none;fillColor=none;align=left;verticalAlign=top;spacingLeft=4;spacingRight=4;overflow=hidden;rotatable=0;points=[[0,0.5],[1,0.5]];portConstraint=eastwest;" vertex="1" parent="GLP4qCDU4uOR4cgcd3Z1-101">
          <mxGeometry y="34" width="160" height="26" as="geometry" />
        </mxCell>
        <mxCell id="GLP4qCDU4uOR4cgcd3Z1-104" value="SaveTo3DFile" style="swimlane;fontStyle=1;align=center;verticalAlign=top;childLayout=stackLayout;horizontal=1;startSize=26;horizontalStack=0;resizeParent=1;resizeParentMax=0;resizeLast=0;collapsible=1;marginBottom=0;" vertex="1" parent="1">
          <mxGeometry x="730" y="197" width="160" height="60" as="geometry" />
        </mxCell>
        <mxCell id="GLP4qCDU4uOR4cgcd3Z1-105" value="" style="line;strokeWidth=1;fillColor=none;align=left;verticalAlign=middle;spacingTop=-1;spacingLeft=3;spacingRight=3;rotatable=0;labelPosition=right;points=[];portConstraint=eastwest;" vertex="1" parent="GLP4qCDU4uOR4cgcd3Z1-104">
          <mxGeometry y="26" width="160" height="8" as="geometry" />
        </mxCell>
        <mxCell id="GLP4qCDU4uOR4cgcd3Z1-106" value="+ export(scene: Scene): void" style="text;strokeColor=none;fillColor=none;align=left;verticalAlign=top;spacingLeft=4;spacingRight=4;overflow=hidden;rotatable=0;points=[[0,0.5],[1,0.5]];portConstraint=eastwest;" vertex="1" parent="GLP4qCDU4uOR4cgcd3Z1-104">
          <mxGeometry y="34" width="160" height="26" as="geometry" />
        </mxCell>
        <mxCell id="GLP4qCDU4uOR4cgcd3Z1-107" value="" style="endArrow=classic;html=1;exitX=0;exitY=0.25;exitDx=0;exitDy=0;entryX=1;entryY=0.25;entryDx=0;entryDy=0;dashed=1;" edge="1" parent="1" source="GLP4qCDU4uOR4cgcd3Z1-101" target="GLP4qCDU4uOR4cgcd3Z1-95">
          <mxGeometry width="50" height="50" relative="1" as="geometry">
            <mxPoint x="559.84" y="47.00000000000006" as="sourcePoint" />
            <mxPoint x="620.1600000000002" y="88.85999999999996" as="targetPoint" />
          </mxGeometry>
        </mxCell>
        <mxCell id="GLP4qCDU4uOR4cgcd3Z1-108" value="" style="endArrow=classic;html=1;exitX=0;exitY=0.25;exitDx=0;exitDy=0;entryX=1;entryY=0.25;entryDx=0;entryDy=0;dashed=1;" edge="1" parent="1" source="GLP4qCDU4uOR4cgcd3Z1-104" target="GLP4qCDU4uOR4cgcd3Z1-95">
          <mxGeometry width="50" height="50" relative="1" as="geometry">
            <mxPoint x="710" y="177" as="sourcePoint" />
            <mxPoint x="670" y="257" as="targetPoint" />
          </mxGeometry>
        </mxCell>
      </root>
    </mxGraphModel>
  </diagram>
</mxfile>
